<svg width="160" height="40" viewBox="0 0 160 40" fill="none" xmlns="http://www.w3.org/2000/svg">
<path d="M155 19.0613C155 19.5962 154.964 20.0775 154.893 20.5055H144.062C144.151 21.5752 144.525 22.4132 145.185 23.0194C145.845 23.6256 146.656 23.9287 147.619 23.9287C149.009 23.9287 149.999 23.3314 150.587 22.1368H154.626C154.198 23.5632 153.378 24.7399 152.165 25.667C150.953 26.5763 149.464 27.031 147.699 27.031C146.273 27.031 144.989 26.7189 143.848 26.0949C142.725 25.4531 141.842 24.5527 141.2 23.3938C140.576 22.2349 140.264 20.8977 140.264 19.3822C140.264 17.8489 140.576 16.5028 141.2 15.3439C141.824 14.185 142.698 13.2935 143.821 12.6695C144.944 12.0455 146.237 11.7335 147.699 11.7335C149.107 11.7335 150.364 12.0366 151.47 12.6428C152.593 13.2489 153.458 14.1137 154.064 15.2369C154.688 16.3423 155 17.6171 155 19.0613ZM151.122 17.9915C151.104 17.0287 150.757 16.2621 150.079 15.6916C149.402 15.1032 148.573 14.809 147.592 14.809C146.665 14.809 145.88 15.0943 145.238 15.6648C144.614 16.2175 144.231 16.9931 144.088 17.9915H151.122Z" fill="#022C22"/>
<path d="M125.513 19.3823C125.513 17.849 125.825 16.5118 126.449 15.3707C127.073 14.2118 127.938 13.3203 129.043 12.6963C130.149 12.0544 131.415 11.7335 132.841 11.7335C134.677 11.7335 136.193 12.1971 137.387 13.1242C138.6 14.0335 139.411 15.3172 139.821 16.9753H135.783C135.569 16.3335 135.203 15.8342 134.686 15.4777C134.187 15.1032 133.563 14.916 132.814 14.916C131.744 14.916 130.898 15.3083 130.274 16.0928C129.65 16.8594 129.337 17.9559 129.337 19.3823C129.337 20.7908 129.65 21.8873 130.274 22.6718C130.898 23.4384 131.744 23.8218 132.814 23.8218C134.33 23.8218 135.319 23.1442 135.783 21.7892H139.821C139.411 23.3939 138.6 24.6686 137.387 25.6136C136.175 26.5585 134.66 27.031 132.841 27.031C131.415 27.031 130.149 26.719 129.043 26.095C127.938 25.4531 127.073 24.5617 126.449 23.4206C125.825 22.2617 125.513 20.9156 125.513 19.3823Z" fill="#022C22"/>
<path d="M108.725 19.3287C108.725 17.8311 109.019 16.5028 109.608 15.3439C110.214 14.185 111.025 13.2935 112.041 12.6695C113.075 12.0455 114.225 11.7335 115.491 11.7335C116.597 11.7335 117.559 11.9563 118.38 12.4021C119.218 12.8478 119.886 13.4094 120.385 14.0869V11.9742H124.156V26.7903H120.385V24.624C119.904 25.3194 119.235 25.8988 118.38 26.3624C117.542 26.8081 116.57 27.031 115.465 27.031C114.216 27.031 113.075 26.71 112.041 26.0682C111.025 25.4263 110.214 24.526 109.608 23.367C109.019 22.1903 108.725 20.8442 108.725 19.3287ZM120.385 19.3822C120.385 18.4729 120.207 17.6973 119.851 17.0555C119.494 16.3958 119.013 15.8966 118.406 15.5578C117.8 15.2012 117.149 15.023 116.454 15.023C115.759 15.023 115.117 15.1923 114.528 15.5311C113.94 15.8698 113.459 16.3691 113.084 17.0287C112.728 17.6706 112.549 18.4373 112.549 19.3287C112.549 20.2202 112.728 21.0047 113.084 21.6822C113.459 22.3419 113.94 22.85 114.528 23.2066C115.135 23.5632 115.777 23.7415 116.454 23.7415C117.149 23.7415 117.8 23.5721 118.406 23.2333C119.013 22.8767 119.494 22.3775 119.851 21.7357C120.207 21.076 120.385 20.2915 120.385 19.3822Z" fill="#022C22"/>
<path d="M96.644 14.1137C97.1254 13.4362 97.7851 12.8746 98.6231 12.4289C99.4789 11.9653 100.451 11.7335 101.538 11.7335C102.804 11.7335 103.945 12.0455 104.961 12.6696C105.995 13.2936 106.807 14.185 107.395 15.3439C108.001 16.485 108.304 17.8133 108.304 19.3288C108.304 20.8443 108.001 22.1904 107.395 23.3671C106.807 24.526 105.995 25.4264 104.961 26.0682C103.945 26.7101 102.804 27.031 101.538 27.031C100.451 27.031 99.4878 26.8082 98.6498 26.3624C97.8297 25.9167 97.1611 25.3551 96.644 24.6776V33.8507H92.8999V11.9742H96.644V14.1137ZM104.48 19.3288C104.48 18.4373 104.293 17.6707 103.918 17.0288C103.562 16.3691 103.08 15.8699 102.474 15.5312C101.886 15.1924 101.244 15.023 100.549 15.023C99.8711 15.023 99.2293 15.2013 98.6231 15.5579C98.0347 15.8967 97.5533 16.3959 97.1789 17.0556C96.8223 17.7152 96.644 18.4908 96.644 19.3823C96.644 20.2737 96.8223 21.0493 97.1789 21.709C97.5533 22.3687 98.0347 22.8768 98.6231 23.2334C99.2293 23.5721 99.8711 23.7415 100.549 23.7415C101.244 23.7415 101.886 23.5632 102.474 23.2066C103.08 22.8501 103.562 22.3419 103.918 21.6822C104.293 21.0226 104.48 20.2381 104.48 19.3288Z" fill="#022C22"/>
<path d="M85.3335 27.031C84.1211 27.031 83.0335 26.817 82.0707 26.3891C81.108 25.9434 80.3413 25.3461 79.7708 24.5973C79.2181 23.8484 78.915 23.0194 78.8615 22.1101H82.6324C82.7037 22.6806 82.98 23.1531 83.4614 23.5275C83.9607 23.9019 84.5758 24.0891 85.3068 24.0891C86.0199 24.0891 86.5726 23.9465 86.9649 23.6612C87.375 23.376 87.58 23.0105 87.58 22.5647C87.58 22.0833 87.3304 21.7268 86.8312 21.495C86.3498 21.2454 85.5742 20.9779 84.5044 20.6927C83.399 20.4252 82.4897 20.1489 81.7766 19.8636C81.0812 19.5783 80.475 19.1415 79.958 18.5531C79.4588 17.9648 79.2091 17.1714 79.2091 16.1729C79.2091 15.3528 79.4409 14.604 79.9045 13.9265C80.3859 13.2489 81.0634 12.7141 81.937 12.3218C82.8285 11.9296 83.8715 11.7335 85.0661 11.7335C86.8312 11.7335 88.2397 12.1792 89.2916 13.0707C90.3435 13.9443 90.923 15.1299 91.03 16.6276H87.4463C87.3928 16.0392 87.1432 15.5757 86.6974 15.2369C86.2695 14.8803 85.6901 14.702 84.9591 14.702C84.2816 14.702 83.7556 14.8268 83.3812 15.0764C83.0246 15.3261 82.8463 15.6737 82.8463 16.1195C82.8463 16.6187 83.0959 17.002 83.5952 17.2694C84.0944 17.5191 84.8699 17.7776 85.9219 18.045C86.9916 18.3125 87.8742 18.5888 88.5695 18.8741C89.2649 19.1593 89.8621 19.6051 90.3614 20.2113C90.8784 20.7996 91.1459 21.5841 91.1637 22.5647C91.1637 23.4205 90.923 24.1872 90.4416 24.8647C89.978 25.5422 89.3005 26.0771 88.4091 26.4693C87.5354 26.8438 86.5102 27.031 85.3335 27.031Z" fill="#022C22"/>
<path d="M73.9325 14.2741C74.4139 13.4897 75.0379 12.8746 75.8045 12.4288C76.589 11.9831 77.4805 11.7602 78.4789 11.7602V15.6916H77.4894C76.3127 15.6916 75.4212 15.9679 74.815 16.5206C74.2266 17.0733 73.9325 18.0361 73.9325 19.409V26.7903H70.1883V11.9742H73.9325V14.2741Z" fill="#022C22"/>
<path d="M68.7928 19.0613C68.7928 19.5962 68.7572 20.0776 68.6859 20.5055H57.8546C57.9437 21.5753 58.3181 22.4132 58.9778 23.0194C59.6375 23.6256 60.4487 23.9287 61.4115 23.9287C62.8022 23.9287 63.7917 23.3315 64.3801 22.1369H68.4184C67.9905 23.5632 67.1704 24.74 65.958 25.6671C64.7456 26.5764 63.2568 27.031 61.4917 27.031C60.0654 27.031 58.7817 26.719 57.6406 26.095C56.5174 25.4531 55.6348 24.5528 54.993 23.3939C54.3689 22.235 54.0569 20.8978 54.0569 19.3823C54.0569 17.849 54.3689 16.5028 54.993 15.3439C55.617 14.185 56.4906 13.2936 57.6139 12.6696C58.7371 12.0455 60.0297 11.7335 61.4917 11.7335C62.9003 11.7335 64.1572 12.0366 65.2626 12.6428C66.3859 13.249 67.2506 14.1137 67.8568 15.237C68.4808 16.3424 68.7928 17.6172 68.7928 19.0613ZM64.915 17.9916C64.8971 17.0288 64.5495 16.2622 63.872 15.6916C63.1944 15.1032 62.3654 14.8091 61.3848 14.8091C60.4576 14.8091 59.6732 15.0943 59.0313 15.6649C58.4073 16.2176 58.0239 16.9931 57.8813 17.9916H64.915Z" fill="#022C22"/>
<path d="M50.3475 15.0497V22.2171C50.3475 22.7163 50.4634 23.0818 50.6952 23.3136C50.9448 23.5275 51.3548 23.6345 51.9254 23.6345H53.6637V26.7903H51.3103C48.1545 26.7903 46.5766 25.257 46.5766 22.1903V15.0497H44.8115V11.9742H46.5766V8.31027H50.3475V11.9742H53.6637V15.0497H50.3475Z" fill="#022C22"/>
<path d="M41.3162 15.0497V22.2171C41.3162 22.7163 41.4321 23.0818 41.6639 23.3136C41.9135 23.5275 42.3236 23.6345 42.8941 23.6345H44.6325V26.7903H42.279C39.1232 26.7903 37.5453 25.257 37.5453 22.1903V15.0497H35.7802V11.9742H37.5453V8.31027H41.3162V11.9742H44.6325V15.0497H41.3162Z" fill="#022C22"/>
<path d="M35.5614 19.0613C35.5614 19.5962 35.5258 20.0776 35.4544 20.5055H24.6231C24.7123 21.5753 25.0867 22.4132 25.7464 23.0194C26.4061 23.6256 27.2173 23.9287 28.1801 23.9287C29.5708 23.9287 30.5603 23.3315 31.1487 22.1369H35.187C34.7591 23.5632 33.9389 24.74 32.7266 25.6671C31.5142 26.5764 30.0254 27.031 28.2603 27.031C26.834 27.031 25.5503 26.719 24.4092 26.095C23.2859 25.4531 22.4034 24.5528 21.7615 23.3939C21.1375 22.235 20.8255 20.8978 20.8255 19.3823C20.8255 17.849 21.1375 16.5028 21.7615 15.3439C22.3856 14.185 23.2592 13.2936 24.3824 12.6696C25.5057 12.0455 26.7983 11.7335 28.2603 11.7335C29.6688 11.7335 30.9258 12.0366 32.0312 12.6428C33.1545 13.249 34.0192 14.1137 34.6254 15.237C35.2494 16.3424 35.5614 17.6172 35.5614 19.0613ZM31.6835 17.9916C31.6657 17.0288 31.318 16.2622 30.6405 15.6916C29.963 15.1032 29.1339 14.8091 28.1533 14.8091C27.2262 14.8091 26.4417 15.0943 25.7999 15.6649C25.1758 16.2176 24.7925 16.9931 24.6499 17.9916H31.6835Z" fill="#022C22"/>
<path d="M8.74415 14.1406C9.22554 13.4274 9.88523 12.848 10.7232 12.4023C11.579 11.9565 12.5507 11.7337 13.6383 11.7337C14.9042 11.7337 16.0452 12.0457 17.0615 12.6697C18.0956 13.2937 18.9068 14.1852 19.4952 15.3441C20.1014 16.4852 20.4045 17.8134 20.4045 19.3289C20.4045 20.8444 20.1014 22.1905 19.4952 23.3673C18.9068 24.5262 18.0956 25.4265 17.0615 26.0684C16.0452 26.7102 14.9042 27.0312 13.6383 27.0312C12.5329 27.0312 11.5612 26.8172 10.7232 26.3893C9.90306 25.9436 9.24337 25.373 8.74415 24.6777V26.7905H5V7H8.74415V14.1406Z" fill="#022C22"/>
<path d="M16.5267 15.324V16.3562C16.5267 21.3246 13.7538 23.5815 10.3336 23.5815H9.35205C9.46146 22.027 9.94555 21.0862 11.2089 19.9683C11.8303 19.4187 11.7777 19.1013 11.4716 19.2835C9.36392 20.5376 8.76226 23.0183 8.76226 23.0183L8.6776 23.5815L8.68029 23.5638C8.68029 23.5638 7.23661 21.6296 7.23661 20.4849C7.23661 17.6346 9.54713 15.324 12.3975 15.324C13.4296 15.324 14.4623 15.8401 16.5267 15.324Z" fill="#EFF87A"/>
</svg>
