<svg width="179" height="179" viewBox="0 0 179 179" fill="none" xmlns="http://www.w3.org/2000/svg">
<path d="M94.361 1.01431C90.3229 -0.338103 87.8519 -0.338103 83.8138 1.01431C73.9627 4.31352 74.39 25.1923 77.4341 45.7919C69.727 26.4474 59.6164 8.17501 49.4402 10.2663C45.2688 11.1235 43.1317 12.3638 40.318 15.5605C33.5513 23.2481 43.9995 40.6981 56.7259 56.7968C40.5993 44.1058 23.1263 33.6959 15.4536 40.4795C12.2631 43.3002 11.0275 45.4401 10.1794 49.6134C8.12459 59.7248 26.157 69.7274 45.3713 77.3724C24.909 74.3847 4.29107 74.0298 1.01431 83.8138C-0.338103 87.8519 -0.338103 90.3229 1.01431 94.361C4.29107 104.145 24.909 103.79 45.3713 100.802C26.157 108.447 8.1245 118.45 10.1793 128.561C11.0274 132.735 12.263 134.875 15.4535 137.695C23.1262 144.479 40.5988 134.069 56.7253 121.378C43.999 137.477 33.5511 154.927 40.3177 162.614C43.1314 165.811 45.2686 167.051 49.44 167.908C59.6163 170 69.7271 151.727 77.4343 132.382C74.39 152.982 73.9626 173.861 83.8138 177.16C87.8519 178.513 90.3229 178.513 94.361 177.16C104.212 173.861 103.785 152.981 100.74 132.381C108.448 151.726 118.559 170 128.735 167.908C132.906 167.051 135.044 165.811 137.857 162.614C144.624 154.927 134.176 137.477 121.45 121.378C137.576 134.069 155.049 144.479 162.722 137.695C165.912 134.875 167.148 132.735 167.996 128.561C170.051 118.45 152.018 108.447 132.804 100.802C153.266 103.79 173.884 104.145 177.16 94.361C178.513 90.3229 178.513 87.8519 177.16 83.8138C173.884 74.0298 153.266 74.3847 132.804 77.3723C152.018 69.7274 170.05 59.7248 167.996 49.6134C167.148 45.4401 165.912 43.3002 162.721 40.4795C155.049 33.6959 137.576 44.1058 121.449 56.7968C134.176 40.6981 144.624 23.2481 137.857 15.5605C135.043 12.3638 132.906 11.1235 128.735 10.2663C118.558 8.17497 108.448 26.4482 100.74 45.7931C103.785 25.1931 104.212 4.31359 94.361 1.01431Z" fill="#EFF87A"/>
</svg>
