<svg width="48" height="48" viewBox="0 0 48 48" fill="none" xmlns="http://www.w3.org/2000/svg">
<rect width="48" height="48" rx="24" fill="#022C22"/>
<path d="M25.0276 14C26.1526 14.003 26.7236 14.009 27.2166 14.023L27.4106 14.03C27.6346 14.038 27.8556 14.048 28.1226 14.06C29.1866 14.11 29.9126 14.278 30.5496 14.525C31.2096 14.779 31.7656 15.123 32.3216 15.678C32.8301 16.1779 33.2236 16.7826 33.4746 17.45C33.7216 18.087 33.8896 18.813 33.9396 19.878C33.9516 20.144 33.9616 20.365 33.9696 20.59L33.9756 20.784C33.9906 21.276 33.9966 21.847 33.9986 22.972L33.9996 23.718V25.028C34.0021 25.7574 33.9944 26.4868 33.9766 27.216L33.9706 27.41C33.9626 27.635 33.9526 27.856 33.9406 28.122C33.8906 29.187 33.7206 29.912 33.4746 30.55C33.2243 31.2178 32.8307 31.8226 32.3216 32.322C31.8216 32.8303 31.2169 33.2238 30.5496 33.475C29.9126 33.722 29.1866 33.89 28.1226 33.94C27.8853 33.9512 27.648 33.9612 27.4106 33.97L27.2166 33.976C26.7236 33.99 26.1526 33.997 25.0276 33.999L24.2816 34H22.9726C22.2429 34.0025 21.5131 33.9949 20.7836 33.977L20.5896 33.971C20.3522 33.962 20.1149 33.9517 19.8776 33.94C18.8136 33.89 18.0876 33.722 17.4496 33.475C16.7823 33.2244 16.1778 32.8308 15.6786 32.322C15.1696 31.8223 14.7758 31.2176 14.5246 30.55C14.2776 29.913 14.1096 29.187 14.0596 28.122C14.0485 27.8847 14.0385 27.6474 14.0296 27.41L14.0246 27.216C14.0062 26.4868 13.9978 25.7574 13.9996 25.028V22.972C13.9968 22.2426 14.0041 21.5132 14.0216 20.784L14.0286 20.59C14.0366 20.365 14.0466 20.144 14.0586 19.878C14.1086 18.813 14.2766 18.088 14.5236 17.45C14.7747 16.7819 15.1693 16.177 15.6796 15.678C16.1787 15.1695 16.7827 14.776 17.4496 14.525C18.0876 14.278 18.8126 14.11 19.8776 14.06C20.1436 14.048 20.3656 14.038 20.5896 14.03L20.7836 14.024C21.5128 14.0062 22.2422 13.9986 22.9716 14.001L25.0276 14ZM23.9996 19C22.6735 19 21.4017 19.5268 20.4641 20.4645C19.5264 21.4021 18.9996 22.6739 18.9996 24C18.9996 25.3261 19.5264 26.5979 20.4641 27.5355C21.4017 28.4732 22.6735 29 23.9996 29C25.3257 29 26.5975 28.4732 27.5351 27.5355C28.4728 26.5979 28.9996 25.3261 28.9996 24C28.9996 22.6739 28.4728 21.4021 27.5351 20.4645C26.5975 19.5268 25.3257 19 23.9996 19ZM23.9996 21C24.3936 20.9999 24.7837 21.0775 25.1477 21.2282C25.5117 21.3789 25.8424 21.5998 26.1211 21.8783C26.3997 22.1569 26.6207 22.4875 26.7715 22.8515C26.9224 23.2154 27 23.6055 27.0001 23.9995C27.0002 24.3935 26.9226 24.7836 26.7719 25.1476C26.6212 25.5116 26.4003 25.8423 26.1218 26.121C25.8432 26.3996 25.5126 26.6206 25.1486 26.7714C24.7847 26.9223 24.3946 26.9999 24.0006 27C23.205 27 22.4419 26.6839 21.8793 26.1213C21.3167 25.5587 21.0006 24.7956 21.0006 24C21.0006 23.2044 21.3167 22.4413 21.8793 21.8787C22.4419 21.3161 23.205 21 24.0006 21M29.2506 17.5C28.9191 17.5 28.6011 17.6317 28.3667 17.8661C28.1323 18.1005 28.0006 18.4185 28.0006 18.75C28.0006 19.0815 28.1323 19.3995 28.3667 19.6339C28.6011 19.8683 28.9191 20 29.2506 20C29.5821 20 29.9001 19.8683 30.1345 19.6339C30.3689 19.3995 30.5006 19.0815 30.5006 18.75C30.5006 18.4185 30.3689 18.1005 30.1345 17.8661C29.9001 17.6317 29.5821 17.5 29.2506 17.5Z" fill="#EFF87A"/>
</svg>
