<svg width="48" height="49" viewBox="0 0 48 49" fill="none" xmlns="http://www.w3.org/2000/svg">
<rect y="0.166748" width="48" height="48" rx="24" fill="#EFF87A"/>
<path d="M25.028 14.1667C26.153 14.1697 26.724 14.1757 27.217 14.1897L27.411 14.1967C27.635 14.2047 27.856 14.2147 28.123 14.2267C29.187 14.2767 29.913 14.4447 30.55 14.6917C31.21 14.9457 31.766 15.2897 32.322 15.8447C32.8305 16.3446 33.224 16.9493 33.475 17.6167C33.722 18.2537 33.89 18.9797 33.94 20.0447C33.952 20.3107 33.962 20.5317 33.97 20.7567L33.976 20.9507C33.991 21.4427 33.997 22.0137 33.999 23.1387L34 23.8847V25.1947C34.0025 25.9242 33.9948 26.6536 33.977 27.3827L33.971 27.5767C33.963 27.8017 33.953 28.0227 33.941 28.2887C33.891 29.3537 33.721 30.0787 33.475 30.7167C33.2247 31.3845 32.8312 31.9894 32.322 32.4887C31.822 32.9971 31.2173 33.3905 30.55 33.6417C29.913 33.8887 29.187 34.0567 28.123 34.1067C27.8857 34.1179 27.6484 34.1279 27.411 34.1367L27.217 34.1427C26.724 34.1567 26.153 34.1637 25.028 34.1657L24.282 34.1667H22.973C22.2433 34.1693 21.5136 34.1616 20.784 34.1437L20.59 34.1377C20.3526 34.1288 20.1153 34.1184 19.878 34.1067C18.814 34.0567 18.088 33.8887 17.45 33.6417C16.7827 33.3911 16.1782 32.9976 15.679 32.4887C15.1701 31.989 14.7763 31.3843 14.525 30.7167C14.278 30.0797 14.11 29.3537 14.06 28.2887C14.0489 28.0515 14.0389 27.8141 14.03 27.5767L14.025 27.3827C14.0066 26.6536 13.9983 25.9242 14 25.1947V23.1387C13.9972 22.4093 14.0046 21.6799 14.022 20.9507L14.029 20.7567C14.037 20.5317 14.047 20.3107 14.059 20.0447C14.109 18.9797 14.277 18.2547 14.524 17.6167C14.7751 16.9487 15.1697 16.3438 15.68 15.8447C16.1791 15.3362 16.7832 14.9427 17.45 14.6917C18.088 14.4447 18.813 14.2767 19.878 14.2267C20.144 14.2147 20.366 14.2047 20.59 14.1967L20.784 14.1907C21.5132 14.173 22.2426 14.1653 22.972 14.1677L25.028 14.1667ZM24 19.1667C22.6739 19.1667 21.4022 19.6935 20.4645 20.6312C19.5268 21.5689 19 22.8407 19 24.1667C19 25.4928 19.5268 26.7646 20.4645 27.7023C21.4022 28.64 22.6739 29.1667 24 29.1667C25.3261 29.1667 26.5979 28.64 27.5356 27.7023C28.4732 26.7646 29 25.4928 29 24.1667C29 22.8407 28.4732 21.5689 27.5356 20.6312C26.5979 19.6935 25.3261 19.1667 24 19.1667ZM24 21.1667C24.394 21.1667 24.7841 21.2442 25.1481 21.3949C25.5121 21.5456 25.8429 21.7665 26.1215 22.0451C26.4001 22.3236 26.6212 22.6543 26.772 23.0182C26.9228 23.3822 27.0005 23.7723 27.0005 24.1662C27.0006 24.5602 26.9231 24.9503 26.7724 25.3143C26.6217 25.6783 26.4007 26.0091 26.1222 26.2877C25.8437 26.5663 25.513 26.7874 25.149 26.9382C24.7851 27.089 24.395 27.1667 24.001 27.1667C23.2054 27.1667 22.4423 26.8507 21.8797 26.2881C21.3171 25.7255 21.001 24.9624 21.001 24.1667C21.001 23.3711 21.3171 22.608 21.8797 22.0454C22.4423 21.4828 23.2054 21.1667 24.001 21.1667M29.251 17.6667C28.9195 17.6667 28.6016 17.7984 28.3671 18.0329C28.1327 18.2673 28.001 18.5852 28.001 18.9167C28.001 19.2483 28.1327 19.5662 28.3671 19.8006C28.6016 20.0351 28.9195 20.1667 29.251 20.1667C29.5825 20.1667 29.9005 20.0351 30.1349 19.8006C30.3693 19.5662 30.501 19.2483 30.501 18.9167C30.501 18.5852 30.3693 18.2673 30.1349 18.0329C29.9005 17.7984 29.5825 17.6667 29.251 17.6667Z" fill="#022C22"/>
</svg>
