<svg width="48" height="48" viewBox="0 0 48 48" fill="none" xmlns="http://www.w3.org/2000/svg">
<rect width="48" height="48" rx="24" fill="#022C22"/>
<g clip-path="url(#clip0_496_34685)">
<path d="M12 13.719C12 12.7695 12.789 12 13.7625 12H34.2375C35.211 12 36 12.7695 36 13.719V34.281C36 35.2305 35.211 36 34.2375 36H13.7625C12.789 36 12 35.2305 12 34.281V13.719ZM19.4145 32.091V21.2535H15.813V32.091H19.4145ZM17.6145 19.773C18.87 19.773 19.6515 18.942 19.6515 17.901C19.629 16.8375 18.8715 16.029 17.6385 16.029C16.4055 16.029 15.6 16.839 15.6 17.901C15.6 18.942 16.3815 19.773 17.5905 19.773H17.6145ZM24.9765 32.091V26.0385C24.9765 25.7145 25.0005 25.3905 25.0965 25.1595C25.356 24.513 25.9485 23.8425 26.9445 23.8425C28.248 23.8425 28.7685 24.8355 28.7685 26.2935V32.091H32.37V25.875C32.37 22.545 30.594 20.997 28.224 20.997C26.313 20.997 25.4565 22.047 24.9765 22.7865V22.824H24.9525L24.9765 22.7865V21.2535H21.3765C21.4215 22.2705 21.3765 32.091 21.3765 32.091H24.9765Z" fill="#EFF87A"/>
</g>
<defs>
<clipPath id="clip0_496_34685">
<rect width="24" height="24" fill="white" transform="translate(12 12)"/>
</clipPath>
</defs>
</svg>
