<svg width="48" height="49" viewBox="0 0 48 49" fill="none" xmlns="http://www.w3.org/2000/svg">
<rect y="0.166748" width="48" height="48" rx="24" fill="#EFF87A"/>
<g clip-path="url(#clip0_750_1912)">
<path d="M12 13.8857C12 12.9362 12.789 12.1667 13.7625 12.1667H34.2375C35.211 12.1667 36 12.9362 36 13.8857V34.4477C36 35.3972 35.211 36.1667 34.2375 36.1667H13.7625C12.789 36.1667 12 35.3972 12 34.4477V13.8857ZM19.4145 32.2577V21.4202H15.813V32.2577H19.4145ZM17.6145 19.9397C18.87 19.9397 19.6515 19.1087 19.6515 18.0677C19.629 17.0042 18.8715 16.1957 17.6385 16.1957C16.4055 16.1957 15.6 17.0057 15.6 18.0677C15.6 19.1087 16.3815 19.9397 17.5905 19.9397H17.6145ZM24.9765 32.2577V26.2052C24.9765 25.8812 25.0005 25.5572 25.0965 25.3262C25.356 24.6797 25.9485 24.0092 26.9445 24.0092C28.248 24.0092 28.7685 25.0022 28.7685 26.4602V32.2577H32.37V26.0417C32.37 22.7117 30.594 21.1637 28.224 21.1637C26.313 21.1637 25.4565 22.2137 24.9765 22.9532V22.9907H24.9525L24.9765 22.9532V21.4202H21.3765C21.4215 22.4372 21.3765 32.2577 21.3765 32.2577H24.9765Z" fill="#022C22"/>
</g>
<defs>
<clipPath id="clip0_750_1912">
<rect width="24" height="24" fill="white" transform="translate(12 12.1667)"/>
</clipPath>
</defs>
</svg>
