<svg width="1040" height="187" viewBox="0 0 1040 187" fill="none" xmlns="http://www.w3.org/2000/svg">
<path d="M1040 83.6256C1040 87.3341 1039.75 90.6718 1039.26 93.6386H964.162C964.78 101.056 967.376 106.866 971.949 111.069C976.523 115.272 982.148 117.373 988.823 117.373C998.465 117.373 1005.33 113.232 1009.41 104.95H1037.4C1034.44 114.839 1028.75 122.998 1020.35 129.426C1011.94 135.731 1001.62 138.883 989.379 138.883C979.49 138.883 970.59 136.719 962.678 132.393C954.89 127.943 948.771 121.7 944.321 113.665C939.995 105.63 937.831 96.3582 937.831 85.8507C937.831 75.2196 939.995 65.8864 944.321 57.8512C948.648 49.8161 954.705 43.6352 962.493 39.3086C970.281 34.9819 979.243 32.8186 989.379 32.8186C999.145 32.8186 1007.86 34.9201 1015.52 39.1231C1023.31 43.3261 1029.31 49.3216 1033.51 57.1095C1037.84 64.7738 1040 73.6125 1040 83.6256ZM1013.11 76.2085C1012.99 69.5331 1010.58 64.2176 1005.88 60.2618C1001.18 56.1824 995.437 54.1427 988.638 54.1427C982.21 54.1427 976.77 56.1206 972.32 60.0764C967.994 63.9085 965.336 69.2859 964.347 76.2085H1013.11Z" fill="#EFF87A"/>
<path d="M835.558 85.8507C835.558 75.2196 837.721 65.9482 842.048 58.0367C846.374 50.0015 852.37 43.8206 860.034 39.494C867.698 35.0437 876.475 32.8186 886.364 32.8186C899.097 32.8186 909.604 36.0327 917.886 42.4608C926.292 48.7653 931.917 57.6658 934.76 69.1623H906.761C905.278 64.712 902.743 61.2507 899.158 58.7784C895.697 56.1824 891.371 54.8844 886.179 54.8844C878.762 54.8844 872.89 57.604 868.563 63.0432C864.237 68.3588 862.074 75.9613 862.074 85.8507C862.074 95.6165 864.237 103.219 868.563 108.658C872.89 113.974 878.762 116.632 886.179 116.632C896.686 116.632 903.547 111.934 906.761 102.539H934.76C931.917 113.665 926.292 122.503 917.886 129.055C909.48 135.607 898.973 138.883 886.364 138.883C876.475 138.883 867.698 136.719 860.034 132.393C852.37 127.943 846.374 121.762 842.048 113.85C837.721 105.815 835.558 96.4818 835.558 85.8507Z" fill="#EFF87A"/>
<path d="M719.161 85.4799C719.161 75.0959 721.2 65.8864 725.279 57.8512C729.482 49.8161 735.107 43.6352 742.153 39.3086C749.323 34.9819 757.296 32.8186 766.073 32.8186C773.737 32.8186 780.412 34.3638 786.099 37.4543C791.909 40.5447 796.544 44.4387 800.006 49.1362V34.4874H826.15V137.214H800.006V122.194C796.668 127.015 792.032 131.033 786.099 134.247C780.289 137.338 773.552 138.883 765.887 138.883C757.234 138.883 749.323 136.658 742.153 132.207C735.107 127.757 729.482 121.514 725.279 113.479C721.2 105.321 719.161 95.9874 719.161 85.4799ZM800.006 85.8507C800.006 79.5462 798.769 74.1688 796.297 69.7186C793.825 65.1447 790.487 61.6834 786.284 59.3347C782.081 56.8623 777.569 55.6261 772.748 55.6261C767.927 55.6261 763.477 56.8005 759.398 59.1492C755.318 61.498 751.981 64.9593 749.385 69.5331C746.912 73.9834 745.676 79.299 745.676 85.4799C745.676 91.6607 746.912 97.0999 749.385 101.797C751.981 106.371 755.318 109.894 759.398 112.367C763.601 114.839 768.051 116.075 772.748 116.075C777.569 116.075 782.081 114.901 786.284 112.552C790.487 110.08 793.825 106.619 796.297 102.168C798.769 97.5944 800.006 92.1552 800.006 85.8507Z" fill="#EFF87A"/>
<path d="M635.399 49.3216C638.736 44.6241 643.31 40.7302 649.12 37.6397C655.054 34.4256 661.791 32.8186 669.331 32.8186C678.108 32.8186 686.02 34.9819 693.066 39.3086C700.236 43.6352 705.86 49.8161 709.939 57.8512C714.142 65.7628 716.244 74.9723 716.244 85.4798C716.244 95.9874 714.142 105.321 709.939 113.479C705.86 121.514 700.236 127.757 693.066 132.207C686.02 136.658 678.108 138.883 669.331 138.883C661.791 138.883 655.116 137.338 649.306 134.247C643.619 131.157 638.984 127.263 635.399 122.565V186.167H609.439V34.4874H635.399V49.3216ZM689.728 85.4798C689.728 79.299 688.43 73.9834 685.834 69.5331C683.362 64.9593 680.024 61.498 675.821 59.1492C671.742 56.8005 667.292 55.6261 662.471 55.6261C657.773 55.6261 653.323 56.8623 649.12 59.3346C645.041 61.6834 641.703 65.1447 639.107 69.7186C636.635 74.2924 635.399 79.6698 635.399 85.8507C635.399 92.0316 636.635 97.409 639.107 101.983C641.703 106.557 645.041 110.08 649.12 112.552C653.323 114.901 657.773 116.075 662.471 116.075C667.292 116.075 671.742 114.839 675.821 112.367C680.024 109.894 683.362 106.371 685.834 101.797C688.43 97.2235 689.728 91.7844 689.728 85.4798Z" fill="#EFF87A"/>
<path d="M556.979 138.883C548.573 138.883 541.032 137.399 534.357 134.433C527.682 131.342 522.366 127.201 518.41 122.009C514.578 116.817 512.477 111.069 512.106 104.764H538.251C538.745 108.72 540.661 111.996 543.999 114.592C547.46 117.188 551.725 118.486 556.793 118.486C561.738 118.486 565.57 117.497 568.29 115.519C571.133 113.541 572.554 111.007 572.554 107.917C572.554 104.579 570.824 102.106 567.363 100.499C564.025 98.7688 558.648 96.9145 551.231 94.9366C543.566 93.0824 537.262 91.1663 532.317 89.1884C527.496 87.2105 523.293 84.1819 519.708 80.1025C516.247 76.0231 514.516 70.5221 514.516 63.5995C514.516 57.913 516.124 52.7211 519.338 48.0236C522.675 43.3261 527.373 39.6176 533.43 36.898C539.611 34.1784 546.842 32.8186 555.124 32.8186C567.363 32.8186 577.128 35.9091 584.422 42.0899C591.715 48.1472 595.732 56.3678 596.474 66.7517H571.627C571.256 62.6723 569.526 59.4583 566.435 57.1095C563.469 54.6372 559.451 53.401 554.383 53.401C549.685 53.401 546.039 54.2663 543.443 55.997C540.97 57.7276 539.734 60.1382 539.734 63.2286C539.734 66.6899 541.465 69.3477 544.926 71.202C548.387 72.9326 553.765 74.7251 561.058 76.5793C568.475 78.4336 574.594 80.3497 579.415 82.3276C584.236 84.3055 588.377 87.3959 591.839 91.5989C595.423 95.6783 597.278 101.118 597.401 107.917C597.401 113.85 595.732 119.166 592.395 123.863C589.181 128.561 584.483 132.269 578.303 134.989C572.245 137.585 565.137 138.883 556.979 138.883Z" fill="#EFF87A"/>
<path d="M477.932 50.4348C481.27 44.9956 485.596 40.7308 490.912 37.6403C496.351 34.5499 502.532 33.0046 509.454 33.0046V60.2624H502.593C494.435 60.2624 488.254 62.1785 484.051 66.0106C479.972 69.8428 477.932 76.5182 477.932 86.0367V137.215H451.973V34.4881H477.932V50.4348Z" fill="#EFF87A"/>
<path d="M442.297 83.6256C442.297 87.3341 442.049 90.6718 441.555 93.6386H366.458C367.076 101.056 369.672 106.866 374.246 111.069C378.82 115.272 384.444 117.373 391.119 117.373C400.762 117.373 407.622 113.232 411.702 104.95H439.701C436.734 114.839 431.048 122.998 422.642 129.426C414.236 135.731 403.914 138.883 391.676 138.883C381.786 138.883 372.886 136.719 364.975 132.393C357.187 127.943 351.068 121.7 346.618 113.665C342.291 105.63 340.128 96.3582 340.128 85.8507C340.128 75.2196 342.291 65.8864 346.618 57.8512C350.944 49.8161 357.001 43.6352 364.789 39.3086C372.577 34.9819 381.539 32.8186 391.676 32.8186C401.441 32.8186 410.156 34.9201 417.821 39.1231C425.608 43.3261 431.604 49.3216 435.807 57.1095C440.133 64.7738 442.297 73.6125 442.297 83.6256ZM415.41 76.2085C415.286 69.5331 412.876 64.2176 408.179 60.2618C403.481 56.1824 397.733 54.1427 390.934 54.1427C384.506 54.1427 379.067 56.1206 374.617 60.0764C370.29 63.9085 367.632 69.2859 366.643 76.2085H415.41Z" fill="#EFF87A"/>
<path d="M314.409 55.8103V105.505C314.409 108.966 315.213 111.5 316.82 113.107C318.551 114.591 321.394 115.332 325.349 115.332H337.402V137.213H321.085C299.205 137.213 288.265 126.582 288.265 105.319V55.8103H276.026V34.4863H288.265V9.08276H314.409V34.4863H337.402V55.8103H314.409Z" fill="#EFF87A"/>
<path d="M251.793 55.8103V105.505C251.793 108.966 252.596 111.5 254.203 113.107C255.934 114.591 258.777 115.332 262.733 115.332H274.785V137.213H258.468C236.588 137.213 225.648 126.582 225.648 105.319V55.8103H213.41V34.4863H225.648V9.08276H251.793V34.4863H274.785V55.8103H251.793Z" fill="#EFF87A"/>
<path d="M211.892 83.6256C211.892 87.3341 211.645 90.6718 211.15 93.6386H136.053C136.671 101.056 139.267 106.866 143.841 111.069C148.415 115.272 154.04 117.373 160.715 117.373C170.357 117.373 177.218 113.232 181.297 104.95H209.296C206.329 114.839 200.643 122.998 192.237 129.426C183.831 135.731 173.509 138.883 161.271 138.883C151.382 138.883 142.481 136.719 134.57 132.393C126.782 127.943 120.663 121.7 116.213 113.665C111.886 105.63 109.723 96.3582 109.723 85.8507C109.723 75.2196 111.886 65.8864 116.213 57.8512C120.539 49.8161 126.597 43.6352 134.384 39.3086C142.172 34.9819 151.135 32.8186 161.271 32.8186C171.037 32.8186 179.752 34.9201 187.416 39.1231C195.204 43.3261 201.199 49.3216 205.402 57.1095C209.729 64.7738 211.892 73.6125 211.892 83.6256ZM185.005 76.2085C184.882 69.5331 182.471 64.2176 177.774 60.2618C173.076 56.1824 167.328 54.1427 160.529 54.1427C154.101 54.1427 148.662 56.1206 144.212 60.0764C139.885 63.9085 137.228 69.2859 136.239 76.2085H185.005Z" fill="#EFF87A"/>
<path d="M25.9594 49.509C29.2971 44.5643 33.8709 40.5467 39.6809 37.4562C45.6145 34.3658 52.3516 32.8206 59.8922 32.8206C68.6689 32.8206 76.5804 34.9839 83.6265 39.3105C90.7963 43.6371 96.4208 49.818 100.5 57.8532C104.703 65.7647 106.805 74.9743 106.805 85.4818C106.805 95.9893 104.703 105.323 100.5 113.481C96.4208 121.516 90.7963 127.759 83.6265 132.209C76.5804 136.66 68.6689 138.885 59.8922 138.885C52.2279 138.885 45.4908 137.401 39.6809 134.435C33.9945 131.344 29.4207 127.388 25.9594 122.567V137.216H0V0H25.9594V49.509Z" fill="#EFF87A"/>
<path d="M79.9184 57.7139V64.8705C79.9184 99.3189 60.6927 114.967 36.9799 114.967H30.1742C30.9328 104.189 34.2891 97.6657 43.0486 89.9151C47.3567 86.1042 46.9917 83.9035 44.8699 85.1667C30.2565 93.862 26.085 111.062 26.085 111.062L25.498 114.967L25.5167 114.844C25.5167 114.844 15.5071 101.434 15.5071 93.497C15.5071 73.734 31.5267 57.7139 51.2892 57.7139C58.4456 57.7139 65.6055 61.2922 79.9184 57.7139Z" fill="#022C22"/>
</svg>
