<svg width="247" height="94" viewBox="0 0 247 94" fill="none" xmlns="http://www.w3.org/2000/svg">
<path d="M189.724 14.3665C150.95 -3.73183 76.3918 -0.669945 38.1207 15.167C20.691 22.3797 -11.4487 43.2787 8.10846 63.0099C11.5578 66.4902 15.7507 69.3175 20.0888 71.764C67.8309 98.6878 134.419 95.9459 185.657 79.8359C193.298 77.4333 200.818 74.5811 207.736 70.7045C212.91 67.8052 217.913 64.2115 221.942 60.0178C233.737 47.7407 230.656 35.3854 217.965 24.9771C203.252 12.9095 183.131 9.16975 164.146 7.12167C147.545 5.33081 130.965 4.98692 114.285 5.71782C83.0036 7.08838 46.9537 9.2692 20.7178 25.7679C9.25861 32.9743 -3.05278 48.3731 6.76979 60.8363C17.4138 74.3415 42.5112 78.7146 59.3919 81.5644C104.931 89.2527 176.986 85.4405 218.466 65.2652C222.939 63.0895 227.471 61.0619 231.472 58.2009C234.634 55.9403 237.661 53.3626 240.287 50.5729C258.898 30.8029 217.369 18.3724 202.723 16.2377C156.649 9.5222 88.4564 -0.168912 46.0241 17.6955" stroke="#CFDCFF" stroke-width="2.35507" stroke-miterlimit="1.5" stroke-linecap="round" stroke-linejoin="round"/>
</svg>
